<?xml version="1.0" encoding="UTF-8"?><svg id="Capa_1" xmlns="http://www.w3.org/2000/svg" viewBox="0 0 20 20"><defs><style>.cls-1{fill:#015fe9;}</style></defs><path class="cls-1" d="m4.8,18.24h10.41c1.68,0,3.03-1.36,3.04-3.04V6.53c0-1.68-1.36-3.03-3.04-3.04h-1.3v-1.3c0-.24-.19-.43-.43-.43s-.43.19-.43.43v1.3h-6.07v-1.3c0-.24-.19-.43-.43-.43s-.43.19-.43.43v1.3h-1.3c-1.68,0-3.03,1.36-3.04,3.04v8.67c0,1.68,1.36,3.03,3.04,3.04ZM2.63,6.53c0-1.2.97-2.17,2.17-2.17h1.3v1.3c0,.24.19.43.43.43s.43-.19.43-.43v-1.3h6.07v1.3c0,.24.19.43.43.43s.43-.19.43-.43v-1.3h1.3c1.2,0,2.17.97,2.17,2.17v2.17H2.63v-2.17Zm0,3.04h14.75v5.64c0,1.2-.97,2.17-2.17,2.17H4.8c-1.2,0-2.17-.97-2.17-2.17v-5.64Z"/></svg>