<?xml version="1.0" encoding="UTF-8"?><svg id="Capa_1" xmlns="http://www.w3.org/2000/svg" viewBox="0 0 20 20"><defs><style>.cls-1{fill:#015fe9;}</style></defs><path class="cls-1" d="m10,1.76C5.45,1.76,1.76,5.45,1.76,10s3.69,8.24,8.24,8.24,8.24-3.69,8.24-8.24c0-4.55-3.69-8.24-8.24-8.24Zm0,15.7c-4.12,0-7.46-3.34-7.46-7.46s3.34-7.46,7.46-7.46,7.46,3.34,7.46,7.46c0,4.12-3.34,7.45-7.46,7.46Zm3.53-7.46c0,.22-.18.39-.39.39h-3.14c-.22,0-.39-.18-.39-.39h0v-4.71c0-.22.18-.39.39-.39s.39.18.39.39v4.32h2.75c.22,0,.39.18.39.39h0Z"/></svg>