<?xml version="1.0" encoding="UTF-8"?><svg id="Capa_1" xmlns="http://www.w3.org/2000/svg" viewBox="0 0 200.13 63"><defs><style>.cls-1{fill:#003a5d;}</style></defs><g><path class="cls-1" d="M11.34,51.8v1.64H6.03v2.42h4.76v1.64H6.03v2.47h5.48v1.64H4.15v-9.81h7.19Z"/><path class="cls-1" d="M17.88,53.43c-.88,0-1.46,.32-1.46,.92,0,1.99,5.27,.91,5.25,4.43,0,1.84-1.6,2.9-3.75,2.9-1.57,0-3.1-.63-4.15-1.57l.78-1.58c1.01,.9,2.34,1.44,3.39,1.44s1.68-.39,1.68-1.08c0-2.04-5.27-.88-5.27-4.37,0-1.71,1.47-2.8,3.67-2.8,1.3,0,2.61,.42,3.54,1.04l-.76,1.63c-1.05-.63-2.19-.95-2.94-.95Z"/><path class="cls-1" d="M29.14,53.42c-1.85,0-3.29,1.43-3.29,3.25s1.44,3.26,3.29,3.26c.94,0,1.93-.43,2.66-1.15l1.11,1.23c-1.01,1.02-2.45,1.68-3.87,1.68-2.89,0-5.11-2.17-5.11-5s2.26-4.94,5.18-4.94c1.4,0,2.83,.6,3.78,1.57l-1.09,1.37c-.7-.78-1.7-1.27-2.66-1.27Z"/><path class="cls-1" d="M39.86,60.01c1.48,0,2.42-.92,2.42-2.49v-5.72h1.88v5.72c0,2.58-1.64,4.17-4.3,4.17s-4.36-1.6-4.36-4.17v-5.72h1.88v5.72c0,1.55,.99,2.49,2.48,2.49Z"/><path class="cls-1" d="M54.8,51.8v1.64h-5.31v2.42h4.76v1.64h-4.76v2.47h5.48v1.64h-7.35v-9.81h7.19Z"/><path class="cls-1" d="M60,51.8v8.11h4.23v1.7h-6.11v-9.81h1.88Z"/><path class="cls-1" d="M73.4,59.54h-4.79l-.87,2.07h-1.95l4.3-9.81h1.95l4.24,9.81h-2.02l-.87-2.07Zm-.67-1.61l-1.71-4.12-1.74,4.12h3.45Z"/><path class="cls-1" d="M93.36,56.71c0,2.86-2.16,4.9-5.18,4.9h-4.01v-9.81h4.08c2.97,0,5.11,2.03,5.11,4.9Zm-1.92,.01c0-1.92-1.39-3.26-3.22-3.26h-2.17v6.5h2.24c1.81,0,3.15-1.33,3.15-3.24Z"/><path class="cls-1" d="M103.43,51.8v1.64h-5.31v2.42h4.76v1.64h-4.76v2.47h5.48v1.64h-7.35v-9.81h7.19Z"/><path class="cls-1" d="M113.98,51.8l5.06,6.71v-6.71h1.82v9.81h-1.78l-5.04-6.7v6.7h-1.84v-9.81h1.78Z"/><path class="cls-1" d="M131.7,51.8v1.64h-5.31v2.42h4.76v1.64h-4.76v2.47h5.48v1.64h-7.35v-9.81h7.19Z"/><path class="cls-1" d="M141.68,56.74h1.64v3.68c-1.01,.76-2.52,1.27-3.88,1.27-2.93,0-5.18-2.17-5.18-4.99s2.3-4.96,5.29-4.96c1.41,0,2.86,.55,3.84,1.4l-1.06,1.37c-.74-.69-1.78-1.11-2.77-1.11-1.89,0-3.38,1.44-3.38,3.29s1.5,3.31,3.39,3.31c.67,0,1.44-.24,2.11-.62v-2.66Z"/><path class="cls-1" d="M156.41,56.71c0,2.82-2.27,4.99-5.23,4.99s-5.22-2.17-5.22-4.99,2.27-4.96,5.22-4.96,5.23,2.14,5.23,4.96Zm-8.53,0c0,1.85,1.53,3.31,3.33,3.31s3.28-1.46,3.28-3.31-1.48-3.28-3.28-3.28-3.33,1.43-3.33,3.28Z"/><path class="cls-1" d="M163.42,53.42c-1.85,0-3.29,1.43-3.29,3.25s1.44,3.26,3.29,3.26c.94,0,1.93-.43,2.66-1.15l1.11,1.23c-1.01,1.02-2.45,1.68-3.87,1.68-2.89,0-5.11-2.17-5.11-5s2.26-4.94,5.18-4.94c1.4,0,2.83,.6,3.78,1.57l-1.09,1.37c-.7-.78-1.69-1.27-2.66-1.27Z"/><path class="cls-1" d="M171.85,51.8v9.81h-1.88v-9.81h1.88Z"/><path class="cls-1" d="M185.18,56.71c0,2.82-2.27,4.99-5.23,4.99s-5.22-2.17-5.22-4.99,2.27-4.96,5.22-4.96,5.23,2.14,5.23,4.96Zm-8.53,0c0,1.85,1.53,3.31,3.33,3.31s3.28-1.46,3.28-3.31-1.48-3.28-3.28-3.28-3.33,1.43-3.33,3.28Z"/><path class="cls-1" d="M191.3,53.43c-.88,0-1.46,.32-1.46,.92,0,1.99,5.27,.91,5.25,4.43,0,1.84-1.6,2.9-3.75,2.9-1.57,0-3.1-.63-4.15-1.57l.78-1.58c1.01,.9,2.34,1.44,3.39,1.44s1.68-.39,1.68-1.08c0-2.04-5.27-.88-5.27-4.37,0-1.71,1.47-2.8,3.67-2.8,1.3,0,2.61,.42,3.54,1.04l-.76,1.63c-1.05-.63-2.19-.95-2.94-.95Z"/></g><g><path class="cls-1" d="M28.12,41.42c-3.77,0-4.53-1.54-4.53-7.62v-7.62c0-5.61,1.77-6.32,4.36-6.32,.94,0,3.12,.12,3.12,1.3,0,.59-.41,1.06-.76,1.3-.47,.35-1,1.48-1,2.3,0,2.24,1.65,4.07,3.89,4.07,2.35,0,4.12-1.59,4.12-4.07,0-2.3-2.83-6.44-9.3-6.44-6.95,0-13.42,5.31-13.42,12.58s6.77,12.04,13.25,12.04c4.83,0,8.77-3.07,10.36-7.62l-1.29-.71c-1.77,4.13-4.18,6.79-8.77,6.79"/><path class="cls-1" d="M64,40.37c-.7,0-1.41-.35-1.41-1.12v-15.63c0-1.82-.53-2.76-2.17-3.58-2.28-1.18-4.98-1.59-7.5-1.59-3.57,0-9.32,1.59-9.32,6.05,0,1.88,1.41,2.76,3.05,2.76,1.35,0,2.81-1.06,2.81-2.59,0-1.12-.47-2.35-.82-2.82-.88-1.12,1.88-2.23,4.1-2.23,1,0,3.87,.59,3.87,2.11v7.35c-5.27-.29-14.65,1.18-14.65,8.17,0,3.76,2.58,5.7,6.09,5.7,3.28,0,6.45-1.59,8.56-4.17,.35,2.59,1.99,4.17,4.57,4.17s4.04-1.24,5.57-3.11l-.7-.82c-.47,.47-1.35,1.35-2.05,1.35m-7.38-6.82c0,1.12-.06,2.17-.41,3.05-.7,1.88-2.23,3.47-4.28,3.47-2.75,0-3.81-1.94-3.81-4.52,0-4.76,4.86-5.23,8.5-5.23v3.23Z"/><path class="cls-1" d="M111.48,29.64c0-6.27,.67-11.2-7.28-11.2-3.52,0-6.13,2.07-7.89,5.05-1.09-3.23-3.64-5.05-6.98-5.05-4.13,0-6.92,2.31-8.43,5.96h-.12v-5.84c-3.82,.12-7.52,.37-10.62,.24v1.52h4.19v21.05h-3.94v1.52h13.71v-1.52h-3.34v-11.62c0-4.5,3.03-9.13,6.01-9.13,3.64,0,2.91,3.41,2.91,6.21v14.54h-3.15v1.52h12.92v-1.52h-3.34v-11.74c0-3.71,1.82-9.01,6.37-9.01,2.85,0,2.55,2.8,2.55,4.5v16.25h-3.22v1.52h13.53v-1.52h-3.89v-11.74Z"/><path class="cls-1" d="M140.8,40.37c-.7,0-1.41-.35-1.41-1.12v-15.63c0-1.82-.53-2.76-2.17-3.58-2.29-1.18-4.98-1.59-7.5-1.59-3.58,0-9.32,1.59-9.32,6.05,0,1.88,1.41,2.76,3.05,2.76,1.35,0,2.81-1.06,2.81-2.59,0-1.12-.47-2.35-.82-2.82-.88-1.12,1.88-2.23,4.1-2.23,1,0,3.87,.59,3.87,2.11v7.35c-5.27-.29-14.65,1.18-14.65,8.17,0,3.76,2.58,5.7,6.09,5.7,3.28,0,6.45-1.59,8.56-4.17,.35,2.59,1.99,4.17,4.57,4.17s4.04-1.24,5.57-3.11l-.7-.82c-.47,.47-1.35,1.35-2.05,1.35m-7.38-6.82c0,1.12-.06,2.17-.41,3.05-.7,1.88-2.23,3.47-4.28,3.47-2.75,0-3.81-1.94-3.81-4.52,0-4.76,4.86-5.23,8.5-5.23v3.23Z"/><path class="cls-1" d="M166.02,18.45c-4.43,0-6.55,3.53-8.49,6.88v-6.75c-3.7,.12-7.4,.37-10.56,.24v1.52h4.01v21.05h-3.58v1.52h15.59v-1.52h-5.46v-5.66c0-7.97,1.46-11.26,3.76-13.57,.79-.79,1.4-1.4,2.55-1.4,.67,0,.61,.37,.43,1.34-.06,.3-.12,.67-.12,.91,0,1.52,1.46,2.8,2.91,2.8,2.18,0,3.82-1.04,3.82-3.41,0-2.74-2.49-3.96-4.86-3.96"/><path class="cls-1" d="M198.46,39.02c-.47,.47-1.35,1.35-2.05,1.35s-1.41-.35-1.41-1.12v-15.63c0-1.82-.53-2.76-2.17-3.58-2.28-1.18-4.98-1.59-7.5-1.59-3.57,0-9.32,1.59-9.32,6.05,0,1.88,1.41,2.76,3.05,2.76,1.35,0,2.81-1.06,2.81-2.58,0-1.12-.47-2.35-.82-2.82-.88-1.12,1.87-2.23,4.1-2.23,.99,0,3.87,.59,3.87,2.11v7.34c-5.27-.29-14.65,1.18-14.65,8.17,0,3.76,2.58,5.7,6.09,5.7,3.28,0,6.44-1.59,8.55-4.17,.35,2.59,1.99,4.17,4.57,4.17s4.04-1.23,5.57-3.11l-.7-.82Zm-9.43-5.46c0,1.12-.06,2.17-.41,3.05-.7,1.88-2.23,3.47-4.28,3.47-2.75,0-3.81-1.94-3.81-4.52,0-4.76,4.86-5.23,8.5-5.23v3.23Z"/><path class="cls-1" d="M38.55,6.41c-3.41-1.6-7.2-2.51-11.22-2.51C12.77,3.91,.96,15.72,.96,30.28c0,4.55,1.15,8.83,3.18,12.57l8.63,.12c-2.85-3.35-4.56-7.69-4.56-12.43,0-10.6,8.6-19.2,19.2-19.2,4.16,0,8,1.32,11.14,3.57V6.41Z"/><path class="cls-1" d="M59.78,6.02c.73-.49,1.82-1.52,1.82-2.25,0-1.22-1.21-2.37-2.43-2.37-1.34,0-2.73,1.64-3.76,2.68l-7.71,8.03h2.97l9.1-6.08Z"/></g><g><path class="cls-1" d="M121.64,1.34l2.6,6.86,2.63-6.86h1.48l-3.41,8.44h-1.47l-3.36-8.44h1.53Z"/><path class="cls-1" d="M136.3,7.88h-4.26l-.81,1.9h-1.48l3.72-8.44h1.46l3.69,8.44h-1.52l-.81-1.9Zm-.54-1.27l-1.59-3.75-1.59,3.75h3.18Z"/><path class="cls-1" d="M143.11,1.34v7.15h3.65v1.29h-5.07V1.34h1.42Z"/><path class="cls-1" d="M156.09,1.34v1.28h-4.6v2.29h4.12v1.27h-4.12v2.33h4.75v1.28h-6.17V1.34h6.03Z"/><path class="cls-1" d="M161.31,1.34l4.52,6.06V1.34h1.4V9.78h-1.4l-4.5-6.05v6.05h-1.42V1.34h1.4Z"/><path class="cls-1" d="M175.16,2.57c-1.69,0-3.01,1.3-3.01,2.96s1.33,2.98,3.01,2.98c.84,0,1.71-.39,2.35-1l.84,.94c-.86,.84-2.07,1.39-3.27,1.39-2.47,0-4.39-1.87-4.39-4.29s1.94-4.24,4.44-4.24c1.19,0,2.39,.49,3.21,1.3l-.83,1.04c-.61-.66-1.49-1.07-2.35-1.07Z"/><path class="cls-1" d="M183.17,1.34V9.78h-1.42V1.34h1.42Z"/><path class="cls-1" d="M192.77,7.88h-4.26l-.81,1.9h-1.48l3.72-8.44h1.46l3.69,8.44h-1.52l-.81-1.9Zm-.54-1.27l-1.59-3.75-1.59,3.75h3.18Z"/></g></svg>