<?xml version="1.0" encoding="utf-8"?>
<!-- Generator: Adobe Illustrator 27.3.0, SVG Export Plug-In . SVG Version: 6.00 Build 0)  -->
<svg version="1.1" id="Capa_1" xmlns="http://www.w3.org/2000/svg" xmlns:xlink="http://www.w3.org/1999/xlink" x="0px" y="0px"
	 viewBox="0 0 184 135" style="enable-background:new 0 0 184 135;" xml:space="preserve">
<style type="text/css">
	.st0{fill:#999999;}
</style>
<g>
	<path class="st0" d="M92.8,121.3c-25.2,0-50.3,0-75.5,0c-3.9,0-7-2.2-8-5.9c-1-3.4,0.4-7,3.6-9.1c1.2-0.8,2.5-1.1,3.9-1.1
		c1.9,0,3.7,0,5.6,0c48,0,96,0,144.1,0c1.2,0,2.4-0.1,3.6,0.1c4.2,0.7,6.9,4.5,6.5,9.1c-0.3,3.7-3.9,6.9-7.9,6.9
		C143.4,121.3,118.1,121.3,92.8,121.3z"/>
	<path class="st0" d="M92.9,17.5c25.2,0,50.4,0,75.6,0c3.4,0,5.8,1.5,7.4,4.4c2.7,5.1-0.9,11.4-6.7,11.7c-1.2,0.1-2.3,0-3.5,0
		c-49.4,0-98.8,0-148.1,0c-3.7,0-6.3-1.6-7.8-4.9c-2.3-5.1,1.6-11.1,7.2-11.1C42.2,17.5,67.6,17.5,92.9,17.5z"/>
	<path class="st0" d="M92.8,77.5c-25.1,0-50.3,0-75.4,0c-3.6,0-6.5-2-7.8-5.3c-1.9-5,1.9-10.6,7.2-10.7c0.5,0,1,0,1.5,0
		c49.9,0,99.8,0,149.6,0c3.2,0,5.7,1,7.5,3.7c1.8,2.6,1.9,5.4,0.4,8.1c-1.4,2.7-3.8,4.3-6.9,4.3c-11.8,0-23.6,0-35.4,0
		C119.9,77.5,106.3,77.5,92.8,77.5z"/>
</g>
</svg>
