<?xml version="1.0" encoding="UTF-8"?><svg id="Capa_1" xmlns="http://www.w3.org/2000/svg" viewBox="0 0 20 20"><defs><style>.cls-1{fill:#015fe9;}</style></defs><path class="cls-1" d="m19.12,14.1H.88c-.25,0-.46.2-.46.46,0,0,0,0,0,0,0,1.26,1.02,2.28,2.28,2.28h14.59c1.26,0,2.28-1.02,2.28-2.28,0-.25-.2-.46-.46-.46h0Zm-1.82,1.82H2.71c-.58,0-1.1-.37-1.29-.91h17.17c-.19.55-.71.91-1.29.91Zm-14.13-3.19h-.91v-7.29c0-1.26,1.02-2.28,2.28-2.28h10.94c1.26,0,2.28,1.02,2.28,2.28v7.29h-.91v-7.29c0-.75-.61-1.37-1.37-1.37H4.53c-.75,0-1.37.61-1.37,1.37v7.29Z"/></svg>