<?xml version="1.0" encoding="utf-8"?>
<!-- Generator: Adobe Illustrator 27.4.0, SVG Export Plug-In . SVG Version: 6.00 Build 0)  -->
<svg version="1.1" id="Capa_1" xmlns="http://www.w3.org/2000/svg" xmlns:xlink="http://www.w3.org/1999/xlink" x="0px" y="0px"
	 viewBox="0 0 197 99" style="enable-background:new 0 0 197 99;" xml:space="preserve">
<style type="text/css">
	.st0{fill:#C01635;}
</style>
<g>
	<g>
		<path class="st0" d="M6.9,38.4c0-2,0-4,0-6c0.2,0,0.4-0.1,0.6-0.1c0.3,0,0.6,0,0.9,0c15.1,0,30.1,0,45.2,0c0.4,0,0.8,0,1.3,0
			c0-0.4,0-0.7,0-1c0-2.4,0-4.7,0-7.1c0-8.7,6-16.2,14.3-18.1c1.6-0.4,3.1-0.5,4.7-0.5c33.1,0,66.3,0,99.4,0c8,0,13.8,3.8,17.3,10.9
			c1.1,2.3,1.6,4.7,1.6,7.2c0,6,0,12,0,18c0,10.7,0,21.4,0,32.1c0,3.3-0.6,6.4-2.2,9.3c-3.1,5.5-7.7,8.8-14,9.7
			c-0.8,0.1-1.6,0.2-2.4,0.2c-33.4,0-66.7,0-100.1,0c-8.7,0-16.8-6.2-18.4-15.6c-0.2-1-0.2-2.1-0.2-3.2c0-2.7,0-5.5,0-8.2
			c0-0.3,0-0.6,0-1.1c-1.3,0-2.5,0-3.7,0c-1.2,0-2.5,0-3.7,0c-1.2,0-2.4,0-3.6,0s-2.4,0-3.6,0c-1.2,0-2.5,0-3.7,0
			c-1.2,0-2.4,0-3.6,0c-1.2,0-2.5,0-3.7,0c-1.2,0-2.4,0-3.6,0c-1.2,0-2.4,0-3.6,0c-1.2,0-2.5,0-3.7,0c-1.2,0-2.4,0-3.6,0
			c-0.2-0.7-0.2-4.4-0.1-6c0,0,0,0,0.1-0.1c0,0,0,0,0.1,0c0.1,0,0.2,0,0.3,0c15.3,0,30.5,0,45.8,0c0.1,0,0.2,0,0.5,0.1
			c0,0.3,0,0.7,0,1c0,4.9,0,9.8,0,14.7c0,1.8,0.4,3.5,1.2,5.2c0.1,0.3,0.3,0.5,0.5,0.8c14.6-10.8,29.2-21.6,43.7-32.3
			c0-0.1,0-0.1,0-0.1c0,0,0-0.1,0-0.1C92.2,37.5,78.1,27.1,64,16.7c-0.1-0.1-0.2-0.1-0.4-0.2c-0.8,0.9-1.4,1.9-1.8,3
			c-0.6,1.5-0.9,3-0.9,4.6c0,4.4,0,8.9,0,13.3c0,0.3,0,0.6,0,0.9C60.2,38.5,8.2,38.6,6.9,38.4z M111.6,51.9
			c-14.9,11-29.7,22-44.7,33.1c0.4,0.2,0.6,0.4,0.9,0.5c1.8,0.9,3.7,1.3,5.7,1.3c33.3,0,66.6,0,99.8,0c0.3,0,0.6,0,1,0
			c1.8-0.1,3.5-0.6,5.1-1.4c0.2-0.1,0.3-0.2,0.6-0.4c-14.9-11-29.8-22.1-44.7-33.1c-1.6,1.2-3.2,2.3-4.8,3.5c-3.9,3-10.2,3-14.1,0
			c-1.3-1-2.7-2-4-3C112.1,52.2,111.8,52.1,111.6,51.9z M68.9,12.6c0.3,0.3,0.6,0.5,0.8,0.7C78.9,20,87.9,26.7,97,33.4
			c7.6,5.6,15.2,11.3,22.9,16.9c0.5,0.4,1.2,0.8,1.8,1c1.9,0.5,3.6,0.3,5.2-0.9c7.2-5.4,14.5-10.7,21.7-16.1
			c9.5-7,19-14.1,28.5-21.1c0.2-0.2,0.5-0.4,0.8-0.6c-0.3-0.1-0.4-0.2-0.5-0.2c-1.4-0.5-2.8-0.6-4.3-0.6c-33.2,0-66.3,0-99.5,0
			c-0.6,0-1.2,0-1.7,0.1C70.9,11.9,70,12.1,68.9,12.6z M140.5,48c14.7,10.9,29.2,21.6,43.9,32.5c0.2-0.3,0.3-0.6,0.5-0.8
			c0.8-1.8,1.2-3.6,1.2-5.6c0-16.5,0-33.1,0-49.6c0-0.3,0-0.6,0-1c-0.2-2.5-1-4.7-2.4-6.7c-0.1-0.1-0.2-0.2-0.3-0.3
			C168.9,27,154.7,37.5,140.5,48z"/>
		<path class="st0" d="M60.9,51.6c-12.6,0-25.1,0-37.7,0c0-2,0-4,0-6c0.7-0.2,36.8-0.2,37.7,0C60.9,47.6,60.9,49.5,60.9,51.6z"/>
	</g>
</g>
</svg>
