<?xml version="1.0" encoding="UTF-8"?><svg id="Capa_1" xmlns="http://www.w3.org/2000/svg" viewBox="0 0 20 20"><defs><style>.cls-1{fill:none;}.cls-2{fill:#015fe9;stroke:#fff;stroke-miterlimit:10;stroke-width:.25px;}</style></defs><path class="cls-1" d="m7.01,13.58l.22-.02-.02-.22c0-.11-.02-.23-.02-.35,0-.46.07-.92.19-1.37l.07-.24h-.25c-1.09,0-2.16-.3-3.1-.85l-.29-.17v1.31c0,.96,1.43,1.82,3.2,1.92Z"/><path class="cls-1" d="m7.37,10.28c.15,0,.29-.01.44-.03l.21-.02.05-.07c.65-.95,1.62-1.66,2.73-1.99l.14-.04v-1.09l-.29.17c-.99.59-2.12.88-3.28.86-1.14.02-2.28-.27-3.27-.86l-.29-.17v1.31c0,.94,1.43,1.94,3.56,1.94Z"/><path class="cls-1" d="m7.37,6.95c2.13,0,3.56-1,3.56-1.94s-1.43-1.94-3.56-1.94-3.56,1-3.56,1.94,1.43,1.94,3.56,1.94Z"/><path class="cls-1" d="m12.24,9.06c-2.17,0-3.93,1.77-3.94,3.94,0,2.17,1.77,3.94,3.94,3.94s3.94-1.77,3.94-3.94-1.77-3.94-3.94-3.94Z"/><path class="cls-1" d="m7.54,14.84l-.05-.12h-.13c-1.14.02-2.27-.27-3.26-.86l-.29-.17v1.31c0,.94,1.43,1.94,3.56,1.94h0c.38,0,.76-.04,1.14-.11l.35-.07-.25-.25c-.46-.48-.82-1.04-1.07-1.66Z"/><path class="cls-2" d="m14.43,8.44c-.68-.32-1.43-.49-2.18-.49h-.21s0-2.94,0-2.94c0-1.71-2.05-3.05-4.68-3.05s-4.68,1.34-4.68,3.05v9.99c0,1.71,2.05,3.05,4.68,3.05.9,0,1.74-.16,2.55-.5l.08-.03.08.04c2.52,1.2,5.53.13,6.73-2.38,1.2-2.51.13-5.53-2.38-6.73ZM7.37,3.07c2.13,0,3.56,1,3.56,1.94s-1.43,1.94-3.56,1.94-3.56-1-3.56-1.94,1.43-1.94,3.56-1.94Zm-3.56,3.96l.29.17c.99.59,2.13.88,3.27.86,1.16.02,2.29-.27,3.28-.86l.29-.17v1.09l-.14.04c-1.11.33-2.08,1.04-2.73,1.99l-.05.07-.21.02c-.14.01-.29.03-.44.03-2.13,0-3.56-1-3.56-1.94v-1.31Zm0,3.33l.29.17c.94.56,2.01.85,3.1.85h.25l-.07.24c-.13.45-.19.91-.19,1.37,0,.12,0,.23.02.35l.02.22-.22.02c-1.76-.1-3.2-.96-3.2-1.92v-1.31Zm4.7,6.47c-.37.07-.76.11-1.14.11h0c-2.13,0-3.56-1-3.56-1.94v-1.31l.29.17c.99.59,2.12.88,3.26.86h.13s.05.12.05.12c.24.62.6,1.18,1.07,1.66l.25.25-.35.07Zm3.73.11c-2.17,0-3.94-1.77-3.94-3.94,0-2.17,1.77-3.94,3.94-3.94,2.17,0,3.94,1.77,3.94,3.94s-1.77,3.94-3.94,3.94Z"/></svg>